<?xml version="1.0" standalone="no"?>
<!DOCTYPE svg PUBLIC "-//W3C//DTD SVG 20010904//EN"
 "http://www.w3.org/TR/2001/REC-SVG-20010904/DTD/svg10.dtd">
<svg version="1.0" xmlns="http://www.w3.org/2000/svg"
 width="842.000000pt" height="842.000000pt" viewBox="0 0 842.000000 842.000000"
 preserveAspectRatio="xMidYMid meet">
<metadata>
Created by potrace 1.14, written by Peter Selinger 2001-2017
</metadata>
<g transform="translate(0.000000,842.000000) scale(0.100000,-0.100000)"
fill="#000000" stroke="none">
<path d="M1856 6710 c3 -19 9 -60 14 -90 17 -101 19 -114 35 -215 8 -55 17
-111 19 -125 9 -48 25 -145 31 -185 7 -50 14 -93 20 -125 3 -14 7 -47 11 -75
3 -27 8 -59 10 -70 3 -11 7 -36 10 -55 3 -19 14 -87 24 -150 21 -127 30 -182
35 -220 2 -14 6 -38 9 -55 3 -16 8 -48 11 -70 4 -22 15 -96 27 -165 11 -69 21
-134 23 -145 1 -11 10 -63 18 -115 9 -52 19 -115 22 -140 3 -25 8 -52 10 -60
2 -8 6 -33 9 -55 4 -22 8 -51 11 -65 3 -14 7 -41 9 -60 6 -44 14 -99 26 -170
11 -62 15 -87 29 -180 6 -36 13 -74 15 -85 2 -11 7 -40 10 -65 3 -25 8 -56 10
-70 3 -14 7 -43 11 -65 3 -22 14 -92 25 -155 10 -63 22 -133 25 -155 3 -23 8
-52 10 -65 3 -14 8 -43 10 -65 3 -22 7 -51 10 -65 3 -14 7 -38 9 -55 3 -16 12
-75 21 -130 9 -55 18 -113 21 -130 2 -16 9 -55 14 -85 8 -51 15 -101 26 -175
2 -16 6 -36 9 -43 2 -7 7 -40 11 -75 3 -34 8 -65 10 -68 2 -4 8 -38 14 -75 12
-85 16 -108 42 -264 11 -69 21 -134 23 -145 1 -11 5 -33 8 -50 3 -16 8 -46 11
-65 5 -36 19 -131 21 -140 1 -3 7 -47 15 -98 8 -50 17 -92 21 -92 4 0 65 28
136 61 70 34 164 78 208 99 44 21 150 71 235 112 157 76 280 135 515 248 72
34 182 87 245 117 63 31 165 79 225 108 61 29 173 83 250 120 77 37 192 92
255 122 63 30 169 81 235 113 66 32 170 81 230 110 61 29 171 82 245 117 74
36 182 88 240 115 58 28 166 80 240 116 74 35 185 88 245 117 117 56 290 139
495 238 69 33 127 61 130 62 5 1 92 43 356 170 94 46 181 86 194 90 12 4 18
10 14 15 -5 4 -79 43 -164 88 -85 44 -216 111 -290 150 -74 38 -202 104 -285
147 -82 43 -208 108 -280 145 -71 37 -197 102 -280 145 -82 43 -208 108 -280
145 -71 37 -202 105 -290 150 -359 186 -430 223 -438 229 -6 6 100 150 496
675 55 73 107 142 114 151 40 51 609 809 615 820 4 7 -728 10 -2212 10 l-2219
0 5 -35z"/>
</g>
</svg>
